<?xml version="1.0" encoding="utf-8"?>
<!-- Generator: Adobe Illustrator 23.0.1, SVG Export Plug-In . SVG Version: 6.00 Build 0)  -->
<svg version="1.1" id="Layer_1" xmlns="http://www.w3.org/2000/svg" xmlns:xlink="http://www.w3.org/1999/xlink" x="0px" y="0px"
	 viewBox="0 0 256 256" style="enable-background:new 0 0 256 256;" xml:space="preserve">
<style type="text/css">
	.st0{fill:#515C65;}
	.st1{opacity:8.000000e-02;}
	.st2{fill:#FFFFFF;}
	.st3{fill:#FFD200;}
	.st4{opacity:6.000000e-02;}
</style>
<rect x="0" class="st0" width="256" height="256"/>
<g>
	<g>
		<path class="st1" d="M218,231.2c0,1.7-38,3.1-84.9,3.1s-84.9-1.4-84.9-3.1c0-1.7,38-3.1,84.9-3.1S218,229.5,218,231.2z"/>
		<g>
			<g>
				<g>
					<g>
						<g>
							<g>
								<g>
									<g>
										<g>
											<g>
												<path class="st2" d="M211.3,41.5c-43.9,3.7-74.5-19.9-81.7-26c-0.9-0.8-2.3-0.8-3.2,0c-7.1,6.1-37.8,29.7-81.7,26
													c-1.4-0.1-2.6,0.9-2.7,2.3c-1.5,19.7-7.8,146.7,85.3,174.2c0.5,0.1,1,0.1,1.4,0c93.1-27.5,86.8-154.5,85.3-174.2
													C213.9,42.4,212.7,41.3,211.3,41.5z"/>
											</g>
										</g>
									</g>
								</g>
							</g>
						</g>
					</g>
					<g>
						<path class="st3" d="M207.5,52.6l0-1.9l-1.9-0.1c-34.1-1.4-60.4-14.7-76.5-25.7l-1.1-0.8l-1.1,0.8
							c-16.1,11-42.5,24.3-76.5,25.7l-1.9,0.1l0,1.9c-0.4,39.3,6.3,133.3,78.9,158.7l0.6,0.2l0.6-0.2
							C200.9,186,207.9,91.9,207.5,52.6z"/>
					</g>
					<g class="st4">
						<g>
							<g>
								<g>
									<g>
										<g>
											<g>
												<path d="M126.8,36C126.8,36,126.8,36,126.8,36l0,163.9l0,0C63.3,177.7,57,95.2,57.3,59.4C88.9,58.1,113.2,45.3,126.8,36
													z"/>
											</g>
										</g>
									</g>
								</g>
							</g>
						</g>
					</g>
				</g>
			</g>
		</g>
	</g>
	<g>
		<path class="st2" d="M129.9,126.5c0.5-0.1,1-0.1,1.5-0.2c0.5,0,1.1,0,1.6,0c0.7,0,1.4,0.1,2,0.2l0.6,35.2l11.4-35.2
			c0.4-0.1,0.9-0.1,1.4-0.2c0.5,0,1,0,1.4,0c0.4,0,0.8,0,1.2,0c0.5,0,0.9,0.1,1.2,0.2l1.9,35.5l10.4-35.5c0.8-0.1,1.6-0.2,2.5-0.2
			c0.4,0,0.9,0,1.3,0c0.5,0,0.9,0.1,1.2,0.2l-13.8,43.1c-0.4,0.1-0.8,0.1-1.4,0.2c-0.5,0-1,0-1.5,0c-0.5,0-0.9,0-1.5,0
			c-0.5,0-1-0.1-1.4-0.2l-1.9-33.1l-11.1,33.1c-0.4,0.1-0.9,0.1-1.5,0.2c-0.6,0-1.1,0-1.5,0c-0.4,0-0.8,0-1.3,0
			c-0.5,0-0.9-0.1-1.3-0.2L129.9,126.5z"/>
		<path class="st2" d="M176.1,126.4c1-0.2,2.1-0.3,3.4-0.5c1.3-0.1,2.5-0.2,3.6-0.2c1.5,0,3,0.2,4.4,0.5s2.7,1,3.8,1.9
			c1.1,0.9,2,2.1,2.6,3.5c0.7,1.5,1,3.3,1,5.6c0,2.7-0.4,5.1-1.1,7.2s-1.8,3.8-3.1,5.3c-1.3,1.4-2.8,2.5-4.6,3.2
			c-1.8,0.7-3.7,1.1-5.8,1.1c-1.3,0-2.4-0.1-3.2-0.2l-2.2,15.7c-0.8,0.1-1.7,0.2-2.5,0.2c-0.8,0-1.6-0.1-2.4-0.2L176.1,126.4z
			 M177.9,148.5c0.5,0.1,0.9,0.1,1.3,0.2c0.4,0,0.9,0.1,1.5,0.1c1.3,0,2.5-0.2,3.6-0.6c1.1-0.4,2.1-1.1,2.9-1.9
			c0.8-0.9,1.4-2,1.9-3.4c0.5-1.4,0.7-3,0.7-5c0-2.7-0.6-4.5-1.8-5.5c-1.2-1-2.9-1.5-5-1.5c-0.4,0-0.8,0-1.3,0.1
			c-0.4,0-0.9,0.1-1.3,0.2L177.9,148.5z"/>
	</g>
</g>
</svg>
